<svg width="375" height="1398" viewBox="0 0 375 1398" fill="none" xmlns="http://www.w3.org/2000/svg">
<g filter="url(#filter0_d)">
<path d="M0 0H375V1398H0V0Z" fill="url(#paint0_linear)"/>
</g>
<g opacity="0.1">
<path fill-rule="evenodd" clip-rule="evenodd" d="M-80.2021 1002.01C-37.8769 1019.29 6.01752 1032.46 50.872 1041.33C186.294 1067.91 326.543 1054.24 454.272 1002.01C536.839 968.318 614.156 918.037 681.954 851.849C617.534 917.602 540.582 969.787 455.644 1005.32C284.854 1076.91 89.4117 1076.9 -81.574 1005.25C-166.536 969.794 -243.508 917.647 -307.927 851.905C-291.566 867.919 -274.473 883.136 -256.648 897.555C-238.822 911.974 -220.362 925.466 -201.267 938.029C-163.118 963.286 -122.566 984.716 -80.2021 1002.01ZM190.15 1015.47C116.458 1013.88 49.7662 1000.8 -15.6378 978.293C-37.7005 970.668 -59.3712 961.868 -80.8459 952.593C-96.9585 945.633 -112.969 938.335 -128.983 931.035L-128.985 931.034C-134.314 928.605 -139.643 926.176 -144.976 923.759C-155.662 918.918 -166.395 914.143 -177.174 909.433L-209.484 895.526C-231.001 886.251 -252.294 876.499 -272.886 865.363C-283.208 859.823 -293.278 853.863 -303.097 847.483C-312.951 841.137 -322.478 834.296 -331.641 826.988C-313.669 842.115 -294.3 855.503 -273.796 866.972C-253.372 878.598 -232.219 888.881 -210.8 898.646C-204.312 901.62 -197.777 904.521 -191.249 907.419C-187.058 909.279 -182.871 911.138 -178.7 913.014C-169.615 917.101 -160.551 921.33 -151.516 925.545L-151.506 925.549L-151.495 925.554C-149.928 926.286 -148.362 927.016 -146.796 927.746C-141.89 930.052 -136.987 932.366 -132.085 934.681L-132.083 934.681C-115.777 942.378 -99.4654 950.079 -82.9877 957.489C-61.555 967.129 -39.8563 976.264 -17.6257 984.071C48.1704 1007.25 114.54 1020.67 190.052 1022.46C340.417 1025.36 467.879 987.107 592.304 910.258C632.153 885.41 670.059 857.579 705.697 827.002C548.612 951.306 387.972 1019.75 190.15 1015.47ZM511.605 924.786C520.602 920.799 528.838 917.149 541.445 911.14C563.171 900.745 584.492 889.539 605.505 877.731C653.564 850.939 692.02 825.477 728.109 800.994C656.742 852.464 602.789 886.293 527.054 922.976C526.381 923.286 525.658 923.62 524.891 923.974C517.183 927.533 504.996 933.161 493.931 937.805C443.58 959.044 390.661 973.597 336.525 981.091C312.516 984.5 288.343 986.635 264.107 987.485C205.101 990.003 140.565 987.499 83.5182 971.816C74.5447 969.591 58.0817 964.373 48.7163 960.931C3.30305 944.437 -42.0122 927.271 -85.6756 906.369C-92.077 903.332 -97.9104 900.549 -103.297 897.978C-149.553 875.905 -162.854 869.557 -219.844 853.793C-223.577 852.753 -227.314 851.723 -231.052 850.693C-250.593 845.305 -270.15 839.913 -289.294 833.102C-294.092 831.495 -298.775 829.647 -303.438 827.806L-303.44 827.805C-304.38 827.434 -305.32 827.063 -306.26 826.694C-308.045 825.993 -309.785 825.213 -311.534 824.429L-311.535 824.429C-312.542 823.977 -313.553 823.524 -314.576 823.085C-328.42 816.997 -341.648 809.6 -354.082 800.994C-333.797 814.117 -311.552 823.7 -288.692 831.297C-269.569 837.651 -250.015 842.587 -230.441 847.527C-226.614 848.493 -222.787 849.459 -218.962 850.436C-159.933 865.749 -138.13 875.964 -105.709 891.154C-75.5423 905.289 -36.1821 923.73 50.9142 954.594C73.491 962.603 96.692 968.733 120.28 972.921C161.046 980.014 191.676 980.882 227.794 981.315C254.644 981.147 291.154 980 317.752 976.67C370.893 970.571 421.486 959.56 475.159 939.61C485.534 935.899 502.149 928.853 507.214 926.705C507.896 926.415 508.369 926.215 508.589 926.123C509.608 925.671 510.611 925.227 511.605 924.786ZM191.956 947.459C137.765 942.059 99.8133 930.349 48.8004 909.685C5.48006 892.04 -26.8113 876.027 -55.3598 861.871L-55.3613 861.87L-55.3624 861.869L-55.363 861.869C-90.1927 844.597 -119.452 830.088 -156.371 818.748C-185.081 809.988 -215.756 806.907 -246.66 803.803C-290.727 799.377 -335.261 794.904 -375.234 773.853C-341.944 792.6 -305.952 799.231 -267.763 804.282C-257.098 805.697 -247.433 806.851 -238.43 807.926C-187.645 813.987 -157.942 817.533 -88.9374 851.401C-78.17 856.654 -67.5093 862.097 -56.8403 867.545C-45.3154 873.429 -33.7807 879.319 -22.0914 884.978C110.509 949.236 171.615 960.288 294.5 956.916C294.751 956.916 294.971 956.916 295.19 956.915C296.715 956.903 298.24 956.812 310.345 956.085L310.347 956.085L310.351 956.084L313.272 955.909C476.993 944.885 595.118 872.89 749.262 773.937C745.504 776.202 741.767 778.456 738.05 780.698C600.801 863.48 490.42 930.057 340.599 946.661C290.342 952.188 232.609 951.488 191.956 947.459ZM665.333 803.778L665.344 803.772C676.475 797.467 688.39 790.719 701.217 783.478L735.081 764.479C746.402 758.221 757.746 752.023 769.113 745.886C757.905 752.368 746.733 758.874 735.599 765.403L702.183 785.087C694.724 789.498 687.59 793.722 680.752 797.771C589.66 851.704 551.134 874.513 497.068 895.205C448.384 913.718 397.266 925.061 345.317 928.88C295.284 932.979 238.629 933.664 189.814 923.06C118.749 907.609 45.6572 868.917 -20.4469 833.923C-75.3166 804.876 -125.372 778.379 -165.457 769.837C-195.897 763.785 -227.513 764.246 -259.125 764.707C-305.699 765.386 -352.264 766.065 -395.043 745.914C-352.08 764.746 -305.697 763.209 -259.579 761.68C-220.628 760.389 -181.864 759.105 -145.508 770.103C-129.437 774.958 -110.048 783.268 -91.163 791.746C-63.1102 804.444 -35.886 818.718 -8.70579 832.969C9.90505 842.728 28.4953 852.475 47.3167 861.698C151.05 912.511 203.365 922.948 267.607 924.655C299.793 925.193 331.982 923.829 364.006 920.569C400.823 916.54 432.63 910.678 476.909 896.436C534.875 877.667 573.36 855.87 665.332 803.778L665.333 803.778ZM715.972 753.902C684.807 770.87 657.982 787.182 633.055 802.34C566.503 842.809 513.476 875.054 427.478 889.608L417.594 891.217C360.912 899.821 276.385 899.611 257.752 897.821C251.176 897.318 244.634 896.454 238.153 895.233C237.932 895.197 237.724 895.163 237.528 895.132C237.371 895.107 237.221 895.083 237.078 895.06C236.632 894.989 236.25 894.929 235.91 894.876L235.905 894.875L235.902 894.875L235.898 894.874L235.891 894.873C235.213 894.767 234.704 894.687 234.196 894.599C232.672 894.336 231.16 894.004 225.135 892.678L225.128 892.676L225.126 892.676L222.794 892.163C221.576 891.895 220.213 891.595 218.68 891.259C158.489 874.921 115.768 851.201 61.1334 820.866L61.1144 820.856C56.1988 818.126 51.1867 815.344 46.0567 812.508C33.9939 805.772 22.0075 798.985 10.202 792.3L10.144 792.267L10.1294 792.258L10.1191 792.253C-45.3537 760.839 -96.8177 731.696 -133.371 720.857C-175.702 708.719 -217.023 713.662 -263.334 719.201C-285.559 721.86 -308.932 724.656 -334.119 725.768C-373.708 727.6 -396.275 722.97 -413.452 716.898C-370.394 733.431 -313.82 727.64 -259.392 722.068L-256.15 721.736L-253.707 721.487C-159.395 711.553 -135.96 719.08 -62.2268 758.897C-35.669 773.193 -9.45518 788.267 16.3136 803.085C76.2822 837.569 133.84 870.666 187.714 889.357C209.91 896.43 213.658 897.24 229.513 900.664L229.523 900.666L231.053 900.996L231.895 901.178C241.93 903.022 252.057 904.325 262.232 905.082C302.297 906.411 368.625 904.746 408.523 898.702C411.839 898.229 413.564 897.998 414.738 897.84C415.079 897.794 415.373 897.754 415.647 897.717C415.87 897.686 416.079 897.657 416.288 897.627C417.706 897.425 419.118 897.186 424.829 896.22L424.837 896.218L424.841 896.218L424.843 896.217L424.865 896.213C425.925 896.034 427.132 895.83 428.514 895.596C514.93 880.946 572.966 844.434 641.18 801.52C664.685 786.733 689.398 771.186 716.896 755.511C728.534 748.861 740.247 742.332 752.034 735.925C763.821 729.517 775.637 723.175 787.48 716.898C775.413 722.83 763.429 728.846 751.53 734.945C739.631 741.045 727.778 747.364 715.972 753.902ZM218.792 856.438C266.963 873.702 302.171 882.572 392.172 875.479C470.819 869.421 528.72 848.995 588.244 813.404C605.783 802.974 622.606 791.787 640.41 779.947L640.411 779.946L640.413 779.945L640.417 779.942L640.418 779.942C682.297 752.092 729.605 720.631 804.433 686.931C791.881 693.012 779.459 699.317 767.167 705.846C712.834 734.584 679.219 757.728 647.166 779.797L647.165 779.798L647.162 779.8C628.954 792.336 611.251 804.525 590.54 817.195C519.578 860.593 453.39 881.131 350.776 884.251C329.703 885.056 308.599 884.167 287.668 881.592C202.789 869.446 125.224 819.899 51.772 772.978C48.576 770.937 45.3877 768.9 42.207 766.872C33.2618 761.186 24.6491 755.655 16.3178 750.305C-44.5983 711.188 -90.4755 681.729 -141.336 671.821C-180.823 663.869 -227.526 672.565 -274.818 681.371C-329.28 691.513 -384.525 701.799 -430.433 686.973C-384.824 700.445 -330.974 689.499 -277.398 678.608C-229.493 668.87 -181.808 659.177 -140.426 667.023C-87.7408 676.647 -41.2 706.183 19.0841 744.441C27.6784 749.896 36.5521 755.527 45.7627 761.304C50.2075 764.104 54.8999 767.081 59.8062 770.195C103.73 798.068 164.795 836.818 218.792 856.438ZM599.261 792.698C563.03 816.202 523.026 833.309 480.996 843.273C430.025 855.206 362.451 861.684 310.277 851.303C308.338 850.877 306.4 850.479 304.464 850.081L304.464 850.081L304.463 850.081L304.463 850.081L304.462 850.081L304.462 850.08C299.408 849.042 294.373 848.008 289.404 846.49C215.682 826.195 152.725 782.204 89.3349 737.91L89.3272 737.905L89.3075 737.891C75.1865 728.024 61.0442 718.142 46.7563 708.504C8.53861 682.622 -52.2176 641.798 -104.504 623.163C-118.266 618.266 -132.685 614.629 -147.454 613.873C-184.863 611.899 -225.703 622.724 -271.827 634.949C-299.249 642.217 -328.539 649.981 -360.087 655.844C-389.108 661.007 -417.372 663.567 -445.958 656.488C-417.134 664.378 -389.163 662.35 -359.779 657.663C-325.821 652.001 -295.159 644.352 -266.947 637.314C-222.166 626.143 -183.556 616.512 -147.734 618.812C-119.736 620.533 -92.1573 633.222 -67.1548 645.953C-54.3456 652.459 -41.7744 659.482 -29.3571 666.855C-4.63461 681.586 19.276 697.745 43.0885 714.072C57.1743 723.667 70.9511 733.334 84.5764 742.895C146.905 786.633 206.065 828.147 277.141 850.282L280.34 851.157C291.82 854.296 294.267 854.965 296.745 855.492C297.416 855.635 298.089 855.768 298.944 855.936L298.945 855.936L298.946 855.937C300.821 856.306 303.57 856.847 309.087 858.046C362.143 868.441 430.879 861.6 482.438 849.079C524.895 838.507 565.22 820.729 601.655 796.517C624.826 781.357 643.264 767.114 661.603 752.947C693.512 728.298 725.123 703.879 780.844 675.263C793.686 668.641 806.705 662.382 819.902 656.488C806.575 662.084 793.397 668.03 780.368 674.325C723.045 702.296 689.04 727.769 655.774 752.689L655.774 752.689C637.892 766.085 620.224 779.32 599.261 792.698ZM525.629 813.908C527.235 813.358 528.838 812.808 530.442 812.27C596.024 787.986 631.586 758.117 669.272 726.466C701.885 699.074 736.089 670.347 792.716 642.749C806.202 636.23 819.944 630.288 833.943 624.925C820.075 630.615 806.491 636.873 793.192 643.7C738.524 671.613 705 700.44 672.826 728.105C651.01 746.865 629.815 765.09 603.069 782.135C601.897 782.869 600.733 783.617 599.569 784.364C597.562 785.653 595.554 786.943 593.508 788.164C591.674 789.192 589.85 790.241 588.025 791.29C583.317 793.996 578.606 796.704 573.713 799.063C539.009 817.446 490.81 833.157 444.613 838.432C429.62 840.273 414.529 841.208 399.423 841.23C393.874 841.062 390.966 841.011 388.963 840.976C384.634 840.901 384.53 840.899 371.131 839.943C370.222 839.873 369.632 839.833 369.17 839.802C368.856 839.781 368.602 839.764 368.349 839.744C367.261 839.66 366.178 839.526 360.457 838.82L360.452 838.82C358.802 838.616 356.767 838.365 354.234 838.054C351.672 837.798 350.118 837.507 340.37 835.68L340.368 835.679C339.463 835.51 338.488 835.327 337.435 835.13C335.55 834.828 333.681 834.431 331.836 833.941C330.518 833.604 329.197 833.273 327.876 832.941C321.847 831.427 315.809 829.912 309.941 827.869C295.537 823.261 281.452 817.714 267.775 811.262C213.857 784.735 179.196 759.111 127.068 720.573C123.772 718.137 120.407 715.649 116.963 713.106C111.09 708.791 105.223 704.467 99.3571 700.143L99.326 700.12C81.1081 686.693 62.8955 673.27 44.5308 660.111C32.3796 651.381 20.1163 642.889 7.72703 634.593C-4.66219 626.296 -17.3734 618.294 -29.9727 610.431C-51.4054 597.378 -78.4798 582.031 -105.022 574.476C-113.849 571.868 -122.898 570.079 -132.055 569.132L-132.986 569.036L-134.219 568.91L-134.219 568.91L-134.22 568.91L-134.22 568.91L-134.221 568.909L-134.222 568.909L-134.222 568.909L-134.223 568.909L-134.223 568.909C-139.003 568.418 -139.003 568.418 -140.314 568.418L-140.796 568.402L-141.362 568.384L-141.388 568.383C-150.809 568.067 -168.597 567.471 -198.229 573.623C-222.222 578.612 -242.205 585.166 -267.801 593.561C-284.335 598.984 -303.21 605.175 -327.021 612.208C-369.998 624.799 -416.098 635.474 -459.831 625.037C-416.14 634.341 -369.928 622.799 -327.777 609.648C-311.154 604.42 -295.368 599.029 -280.214 593.855L-280.196 593.849L-280.192 593.847L-280.188 593.846L-280.18 593.843L-280.165 593.838L-280.162 593.837L-280.156 593.835L-280.15 593.833C-216.992 572.265 -164.84 554.455 -109.012 567.789C-88.4192 573.147 -67.7424 580.632 -26.8228 605.227C-13.9997 613.062 -1.33041 621.008 11.1988 629.304C23.7141 637.615 36.0893 646.097 48.3246 654.753C65.7732 667.103 82.9799 679.744 100.183 692.383C107.106 697.47 114.029 702.556 120.966 707.622C124.387 710.138 127.884 712.72 131.451 715.353L131.478 715.372C183.077 753.46 249.286 802.332 311.957 821.447C317.304 823.321 322.782 824.72 328.266 826.12L328.267 826.12L328.268 826.121L328.269 826.121C329.948 826.55 331.628 826.979 333.306 827.421C335.307 827.995 336.469 828.219 344.155 829.618C347.676 830.236 348.958 830.509 349.804 830.69L349.805 830.69L349.809 830.69L349.816 830.692L349.828 830.695L349.834 830.696L349.841 830.697C349.935 830.717 350.024 830.736 350.111 830.755C350.201 830.773 350.288 830.792 350.375 830.809C351.633 831.064 352.91 831.229 363.027 832.537L363.03 832.538L363.035 832.538L363.037 832.538L363.043 832.539L366.092 832.934C367.443 833.128 368.139 833.182 373.143 833.571L373.145 833.571C374.255 833.658 375.577 833.76 377.165 833.885C382.503 834.421 387.871 834.555 393.236 834.689L393.237 834.689L393.239 834.689L393.24 834.689L393.242 834.689L393.243 834.689L393.245 834.689L393.246 834.689L393.248 834.689C395.293 834.74 397.338 834.791 399.382 834.864C429.485 834.694 442.053 832.819 461.555 829.907L463.418 829.63C464.216 829.511 465.026 829.39 465.849 829.268C468.209 828.881 470.551 828.401 472.891 827.922L472.891 827.922L472.891 827.922L472.891 827.922L472.892 827.922L472.892 827.922L472.892 827.922L472.893 827.922L472.893 827.922L472.894 827.922L472.895 827.921L472.896 827.921L472.897 827.921C474.192 827.656 475.486 827.391 476.783 827.141C478.194 826.855 479.259 826.643 480.122 826.471C481.318 826.232 482.127 826.07 482.935 825.898C484.628 825.535 486.31 825.124 491.52 823.85L491.524 823.849L491.526 823.849L491.526 823.849C492.473 823.617 493.538 823.357 494.74 823.063C495.865 822.788 497.111 822.484 498.496 822.147C500.873 821.557 503.221 820.865 505.566 820.173C506.783 819.814 507.999 819.455 509.219 819.111C514.788 817.623 520.224 815.76 525.629 813.908ZM762.814 633.613C730.78 654.162 706.25 676.972 682.176 699.36C643.063 735.732 605.152 770.987 538.211 793.607C516.371 800.901 493.863 806.018 471.015 808.884C388.258 818.543 340.995 796.845 318.671 786.595C317.132 785.889 315.712 785.237 314.407 784.653C313.617 784.259 312.809 783.856 311.982 783.445C290.584 772.79 256.782 755.96 197.22 711.064C173.226 692.986 149.868 674.028 126.48 655.044L126.478 655.043L126.476 655.041L126.475 655.04C101.79 635.004 77.0698 614.94 51.5304 595.854C26.6679 577.302 1.03557 559.563 -26.1788 544.355C-122.563 490.534 -158.275 502.09 -293.101 554.148C-307.52 559.744 -321.967 565.341 -336.498 570.461C-364.007 580.114 -383.171 586.536 -411.632 591.922C-431.385 594.986 -438.874 595.308 -454.889 594.874C-460.496 594.542 -466.082 593.918 -471.624 593.007L-466.452 593.867C-417.148 602.093 -357.259 581.597 -291.855 557.338C-288.032 555.913 -284.245 554.497 -280.493 553.093L-280.45 553.077C-215.52 528.791 -161.091 508.433 -114.066 515.759C-61.4428 523.845 4.92729 568.922 47.5267 601.1C73.8388 620.909 98.511 641.028 122.782 660.821L122.79 660.827L122.791 660.828L122.792 660.828C179.187 706.817 233.417 751.04 301.023 785.506C330.086 799.944 343.021 804.142 355.27 807.653C411.827 823.672 478.463 819.853 539.905 798.657C608.398 774.753 646.61 738.229 685.75 700.819L685.75 700.818C709.192 678.412 732.967 655.688 763.78 635.166C776.662 626.619 790.03 618.827 803.817 611.831C817.585 604.767 831.742 598.489 846.221 593.028C831.605 598.174 817.29 604.134 803.341 610.879C789.405 617.671 775.874 625.262 762.814 633.613ZM697.142 668.988L697.142 668.988C708.971 656.439 720.706 643.989 733.457 632.215C745.19 621.278 757.691 611.193 770.863 602.037C797.312 583.873 826.377 569.843 857.056 560.43C826.725 570.557 798.061 585.116 771.997 603.632C743.67 623.844 722.07 647.223 700.421 670.654C661.995 712.244 623.415 754.001 546.792 778.511C484.636 798.056 416.18 798.28 357.062 771.88C298.517 745.522 245.852 706 197.331 665.176C180.597 651.08 164.131 636.711 147.683 622.356C140.051 615.696 132.423 609.04 124.774 602.415L106.575 586.816L88.2359 571.427C42.3887 533.611 -46.7579 461.938 -117.692 460.008C-166.718 458.659 -225.685 484.235 -285.453 510.158C-336.652 532.365 -388.439 554.826 -435.067 560.836C-450.968 562.868 -467.073 562.708 -482.93 560.36C-467.071 562.353 -451.013 562.16 -435.207 559.787C-389.736 553.109 -339.244 530.443 -288.928 507.856C-228.56 480.757 -168.447 453.772 -117.566 454.649C-60.3792 455.643 9.68657 501.769 54.9458 536.269C67.7131 545.978 80.1724 556.065 92.5337 566.222L110.971 581.612L129.169 597.211C136.913 603.894 144.628 610.604 152.339 617.311C168.746 631.581 185.137 645.837 201.755 659.789C207.831 664.966 213.976 670.044 220.164 675.067C225.786 679.63 231.454 684.136 237.116 688.636L237.117 688.637L237.117 688.637L237.118 688.638L237.119 688.638L237.119 688.639L237.12 688.639L237.12 688.64L237.121 688.64L237.146 688.66L237.161 688.672L238.825 689.995C238.972 690.107 239.153 690.246 239.366 690.41L239.969 690.873C245.204 694.896 262.093 707.874 272.339 714.939C272.956 715.362 273.597 715.801 274.261 716.256C290.46 727.359 320.44 747.907 359.708 765.808C417.132 791.802 483.46 791.886 545.126 773.377C620.733 750.051 659.412 709.016 697.142 668.988ZM502.233 758.463C486.428 760.31 469.503 761.009 453.698 759.037C368.625 748.74 270.197 665.497 206.305 607.508C193.878 596.239 181.592 584.91 169.399 573.667L169.398 573.666L169.397 573.665L169.395 573.664L169.394 573.663L169.393 573.661L169.392 573.66L169.391 573.659L169.39 573.658L169.389 573.657L169.388 573.656L169.387 573.655L169.386 573.655C104.374 513.706 41.9791 456.17 -25.2691 423.115C-36.4622 417.611 -47.9763 412.786 -59.749 408.663C-68.1828 405.775 -76.8534 403.631 -85.6615 402.256C-87.5653 402.027 -89.0851 401.844 -90.3117 401.695C-95.02 401.127 -95.4066 401.08 -96.5949 401.024C-104.94 400.377 -113.322 400.377 -121.667 401.024C-123.543 401.094 -132.573 402.102 -134.113 402.423C-146.45 404.245 -158.622 407.052 -170.51 410.818C-205.664 421.855 -245.344 441.72 -285.851 462L-285.852 462C-339.663 488.94 -394.933 516.61 -442.99 525.286C-459.171 528.28 -475.691 528.996 -492.071 527.413C-475.684 529.345 -459.107 528.978 -442.822 526.322C-393.637 518.309 -337.764 491.202 -282.816 464.543L-282.813 464.542C-259.862 453.407 -237.073 442.351 -215 432.796C-176.95 416.19 -155.951 411.111 -133.371 407.614C-131.873 407.376 -123.053 406.481 -121.261 406.439C-110.161 405.702 -99.0129 406.172 -88.0134 407.838C-83.0258 408.604 -78.0819 409.631 -73.2022 410.916C-71.168 411.476 -70.2128 411.716 -69.5718 411.876C-69.3126 411.941 -69.1048 411.994 -68.8978 412.049C-68.0613 412.272 -67.2383 412.546 -63.0902 413.925C-61.9298 414.31 -60.5091 414.783 -58.7551 415.364C-58.4283 415.492 -58.0364 415.644 -57.5851 415.819L-57.5738 415.823L-57.5718 415.824L-57.571 415.824C-52.5205 417.781 -40.0621 422.607 -27.957 428.739C28.2637 456.72 82.2864 503.671 128.974 545.992C141.066 556.985 153.065 568.091 165.072 579.206C177.21 590.441 189.356 601.684 201.615 612.824C226.002 634.985 250.934 656.614 277.043 676.858C313.441 705.062 361.486 737.184 404.435 753.189C448.112 769.502 481.64 769.124 527.46 760.534C535.565 758.981 543.699 757.33 551.748 755.231C584.079 747.141 614.543 732.89 641.469 713.26C654.745 703.327 667.126 692.251 678.469 680.159C691.673 666.329 703.187 652.356 714.498 638.631C743.084 603.943 770.369 570.833 820.35 545.573C835.038 538.172 850.352 532.086 866.113 527.385C785.567 549.632 747.623 594.311 709.881 638.752C664.67 691.989 619.748 744.883 502.233 758.463ZM656.896 677.865C663.475 672.697 669.761 667.167 675.725 661.3C694.799 641.934 709.642 622.034 723.936 602.868C759.001 555.853 790.769 513.258 873.631 493.808C840.873 501.853 809.557 516.473 783.784 538.144C777.322 543.511 771.202 549.277 765.459 555.408C762.338 558.569 754.932 567.089 749.094 574.588C740.94 584.78 733.293 595.377 725.627 605.998C723.423 609.053 721.216 612.11 718.996 615.16C690.074 654.655 676.901 666.743 659.556 681.236C658.784 681.828 658.015 682.425 657.245 683.022C654.648 685.034 652.046 687.05 649.336 688.917C621.576 708.755 589.364 722.088 556.018 729.013C514.916 737.478 475.621 738.261 435.625 725.362C423.388 721.481 411.48 716.635 400.011 710.868C397.932 709.759 396.076 708.77 394.409 707.882L394.391 707.873L394.086 707.71L394.079 707.706L394.029 707.68L393.999 707.664L393.994 707.661L393.991 707.66C385.635 703.208 382.122 701.337 378.67 699.359C376.167 697.926 373.695 696.437 369.433 693.868L369.432 693.867C367.238 692.545 364.569 690.937 361.178 688.903C332.311 670.954 305.419 650.08 279.703 628.031C253.986 605.983 229.432 582.661 205.213 559.101C198.887 552.928 192.614 546.785 186.389 540.689C112.136 467.973 44.5644 401.801 -28.167 368.511C-55.5213 356.031 -69.5204 353.373 -87.7193 351.568C-145.753 345.064 -214.565 382.379 -284.944 420.544C-340.214 450.515 -396.45 481.01 -449.192 491.22C-465.822 494.416 -482.819 495.268 -499.687 493.752C-440.932 498.145 -382.654 470.416 -310.53 430.53C-302.317 426.014 -294.23 421.517 -286.257 417.084C-205.901 372.4 -137.173 334.182 -68.1205 348.463C-63.8645 349.238 -59.6576 350.261 -55.5212 351.527C-53.4335 352.043 -51.3769 352.678 -49.3616 353.429C-45.271 354.723 -41.2482 356.222 -37.3083 357.92C42.9172 390.7 114.085 460.26 188.729 533.218L188.729 533.218L188.735 533.223L188.74 533.228C195.838 540.167 202.969 547.135 210.141 554.106C234.303 577.652 258.69 600.918 284.196 622.869C321.308 654.781 347.179 672.632 375.499 689.841C375.843 690.049 376.165 690.245 376.469 690.43L376.906 690.696C377.261 690.913 377.589 691.113 377.894 691.299L378.339 691.571L378.347 691.575L378.368 691.588L378.38 691.595C379.654 692.374 380.514 692.899 381.383 693.41C383.184 694.469 385.022 695.465 390.67 698.526L390.673 698.527C392.485 699.509 394.688 700.703 397.407 702.18C448.98 730.035 497.767 734.945 554.94 723.753C587.898 717.444 619.181 704.352 646.803 685.308C649.458 683.52 651.999 681.586 654.545 679.648C655.327 679.052 656.11 678.457 656.896 677.865ZM672.533 642.736C671.876 643.299 671.223 643.863 670.572 644.425C667.989 646.654 665.428 648.864 662.734 650.976C662.148 651.431 661.568 651.893 660.989 652.355L660.988 652.355L660.988 652.355L660.988 652.355L660.987 652.356L660.987 652.356L660.986 652.356L660.986 652.356L660.986 652.357L660.985 652.357L660.985 652.357L660.985 652.358L660.984 652.358L660.984 652.358C659.891 653.229 658.8 654.099 657.666 654.921L656.15 656.011L655.097 656.768L655.097 656.768C651.72 659.197 650.899 659.787 650.056 660.345C649.786 660.524 649.513 660.7 649.152 660.932C648.687 661.231 648.077 661.624 647.139 662.238C636.428 669.282 625.019 675.203 613.093 679.908C587.144 690.115 559.737 696.136 531.898 697.745C531.091 697.772 530.28 697.802 529.466 697.832C526.039 697.959 522.552 698.088 519.102 697.997C506.307 697.936 493.547 696.652 480.997 694.164C480.544 694.076 480.165 694.004 479.836 693.941L479.835 693.941L479.831 693.94C479.143 693.809 478.675 693.719 478.21 693.621C477.231 693.415 476.259 693.17 473.246 692.411C472.056 692.111 470.547 691.73 468.593 691.24C411.785 673.752 369.899 640.959 326.838 604.976C324.796 603.253 322.796 601.531 320.796 599.808C320.098 599.208 319.4 598.607 318.701 598.006C318.148 597.531 317.595 597.056 317.039 596.581C313.763 593.783 310.543 590.985 307.337 588.047C305.26 586.154 303.17 584.272 301.081 582.39L301.078 582.388L301.076 582.386L301.074 582.384L301.071 582.381L301.069 582.379L301.067 582.377L301.064 582.375L301.062 582.373L301.059 582.37L301.057 582.368L301.055 582.366L301.052 582.364L301.05 582.362C296.743 578.483 292.435 574.603 288.228 570.615C263.135 547.244 237.069 521.138 210.535 494.563L210.533 494.562C161.556 445.51 110.983 394.86 61.9879 356.857C34.5916 335.55 5.20734 316.285 -27.0187 302.575C-66.4964 285.912 -95.0406 284.569 -130.053 293.187C-178.079 305.242 -233.276 338.988 -285.983 371.212L-285.984 371.213L-286.012 371.23C-295.564 377.07 -305.035 382.86 -314.366 388.461L-315.74 389.287C-374.456 424.553 -439.404 463.561 -505.454 459.924C-453.405 463.841 -403.596 441.569 -357.875 416.848C-331.589 402.538 -306.359 387.576 -282.131 373.209C-204.504 327.174 -137.163 287.239 -78.3117 294.404C-30.9385 299.847 20.4244 332.64 57.9142 362.062C107.757 401.385 153.95 447.715 200.472 494.375L200.474 494.378L200.481 494.385L200.482 494.386C227.809 521.793 255.249 549.314 283.609 575.596C287.678 579.437 291.84 583.178 296.002 586.918L296.003 586.918L296.004 586.919L296.004 586.92L296.005 586.92L296.008 586.923L296.011 586.925L296.013 586.928L296.016 586.93L296.019 586.933L296.022 586.935L296.024 586.938L296.027 586.941L296.03 586.943C298.302 588.985 300.573 591.027 302.829 593.084C304.924 594.96 307.048 596.8 309.171 598.64L309.177 598.645L309.181 598.648L309.185 598.652L309.188 598.655C310.337 599.65 311.486 600.646 312.629 601.646C313.294 602.228 313.958 602.811 314.622 603.394L314.654 603.422C317.234 605.688 319.809 607.95 322.428 610.124C323.193 610.767 323.958 611.409 324.722 612.052C330.612 617.003 336.479 621.935 342.489 626.703C349.279 632.089 356.152 637.419 363.138 642.596C377.123 652.977 391.702 662.535 406.801 671.22C421.971 679.942 437.902 687.271 454.398 693.115C506.055 711.442 564.334 704.461 614.801 684.399C624.931 680.261 634.703 675.297 644.017 669.555C645.219 668.829 646.38 668.051 647.542 667.274C648.194 666.837 648.845 666.401 649.505 665.973C658.589 659.919 667.205 653.19 675.277 645.841C704.505 618.8 721.975 591.555 738.342 566.033C752.923 543.294 766.628 521.922 786.99 503.28C812.847 479.496 845.213 466.583 879.385 459.91C795.768 474.458 767.257 517.162 735.121 565.293C718.151 590.709 700.171 617.639 672.533 642.736ZM409.503 620.924C456.792 651.241 499.364 666.84 557.586 661.034C669.527 649.195 705.332 589.328 738.789 533.387C753.444 508.882 767.649 485.131 787.606 466.499C813.967 441.652 847.957 429.872 883.669 425.843C848.335 430.516 814.443 442.995 788.88 467.814C769.922 486.065 756.294 509.503 742.113 533.891C708.933 590.956 672.729 653.22 558.146 666.393C490.474 673.738 439.755 651.605 384.081 611.243C376.969 605.983 369.857 600.652 362.97 595.056C349.139 583.962 335.825 572.266 322.778 560.332C317.137 555.155 311.558 549.904 305.979 544.652C305.121 543.844 304.262 543.036 303.403 542.229C263.949 503.796 234.713 473.015 207.451 444.311L207.445 444.305L207.444 444.304L207.442 444.302C184.213 419.845 162.417 396.896 136.953 372.008C111.976 347.268 85.7399 323.831 58.3481 301.791C30.8118 280.008 1.44148 260.352 -31.1205 247.97C-32.6885 247.327 -42.0539 244.193 -43.4538 243.773L-52.8612 241.157L-53.1777 241.088C-61.9108 239.201 -63.1834 238.926 -64.4696 238.751C-64.689 238.721 -64.9088 238.694 -65.1661 238.663C-65.8581 238.578 -66.8215 238.46 -68.7782 238.163C-73.0376 237.561 -77.3288 237.211 -81.6295 237.114C-83.7839 237.002 -85.9427 237.002 -88.0972 237.114C-88.8957 237.15 -89.6942 237.167 -90.4927 237.184L-90.4955 237.184C-91.8519 237.213 -93.2083 237.242 -94.5647 237.366C-94.7773 237.389 -95.5752 237.472 -96.6294 237.583C-99.3246 237.864 -103.695 238.32 -104.238 238.401C-109.606 239.168 -114.929 240.224 -120.183 241.563C-123.19 242.191 -126.115 243.068 -129.043 243.946L-129.045 243.946C-130.288 244.319 -131.531 244.692 -132.782 245.046C-177.846 259.219 -229.513 293.231 -281.426 327.405C-292.748 334.857 -304.081 342.318 -315.36 349.582C-389.247 397.079 -448.898 428.599 -509.64 425.801C-456.863 427.144 -407.446 402.311 -361.851 375.016C-346.732 365.992 -331.906 356.521 -317.221 346.728C-308.455 340.95 -299 334.596 -289.12 327.956L-289.119 327.955C-255.268 305.204 -216.435 279.104 -183.221 261.387C-149.917 243.717 -132.348 238.862 -115.018 234.665C-108.427 233.258 -101.755 232.263 -95.0406 231.685C-93.5752 231.539 -92.1037 231.494 -90.6302 231.45C-90.3395 231.441 -90.0486 231.432 -89.7577 231.422C-89.2696 231.406 -88.7814 231.388 -88.2931 231.364C-86.0425 231.212 -83.7856 231.179 -81.5315 231.266L-80.3671 231.315L-79.3838 231.356L-78.3822 231.399L-78.3816 231.399L-78.3809 231.399L-78.38 231.399L-78.3785 231.399L-78.376 231.399C-73.4186 231.608 -72.6799 231.639 -71.9519 231.744C-71.8244 231.763 -71.6972 231.784 -71.5477 231.808C-71.0116 231.895 -70.189 232.03 -68.0363 232.273C-63.5596 232.747 -59.1207 233.527 -54.7511 234.609C-52.5448 235.017 -50.3624 235.545 -48.2136 236.19C-47.3978 236.414 -46.6753 236.611 -46.0328 236.787C-42.1058 237.86 -41.1728 238.116 -40.2537 238.413C-40.0739 238.471 -39.8946 238.531 -39.6937 238.599C-39.5813 238.637 -39.4621 238.677 -39.3323 238.721L-39.3147 238.727L-39.3093 238.729C-38.5695 238.98 -37.4822 239.349 -35.3483 240.038C-34.6459 240.282 -33.9419 240.512 -33.2399 240.741C-31.8154 241.205 -30.3992 241.667 -29.0207 242.248C4.25532 254.714 34.1995 274.496 62.4218 296.601C90.0765 318.702 116.548 342.243 141.727 367.126C168.933 393.615 191.485 417.374 215.472 442.644L215.473 442.645C241.894 470.479 270.055 500.147 308.093 537.318L309.588 538.73L310.535 539.626L310.544 539.634L310.546 539.636C316.113 544.898 321.689 550.167 327.328 555.352C340.277 567.257 353.492 578.841 367.114 589.894C373.903 595.448 380.903 600.778 387.902 605.997C394.986 611.164 402.186 616.14 409.503 620.924ZM839.302 400.413C835.899 401.573 835.275 401.786 834.667 402.037C834.533 402.092 834.4 402.149 834.237 402.219L834.228 402.223L834.057 402.296L833.947 402.343L833.738 402.432L833.594 402.493C825.878 405.75 825.853 405.764 824.864 406.299C824.349 406.578 823.574 406.997 821.316 408.089C818.385 409.454 815.619 411.128 812.853 412.801L812.853 412.802C811.762 413.462 810.672 414.122 809.571 414.763C808.538 415.449 807.517 416.156 806.492 416.866C805.658 417.444 804.82 418.024 803.971 418.596C802.087 419.841 800.278 421.196 798.554 422.653C794.963 425.382 791.536 428.32 788.292 431.453C786.445 433.048 780.019 439.693 778.815 441.093C769.813 451.202 761.841 462.183 755.016 473.872C751.239 480.277 747.477 486.868 743.681 493.518L743.681 493.519C729.487 518.388 714.825 544.077 697.13 563.914C691.281 570.575 684.955 576.803 678.203 582.549C673.093 586.784 667.736 590.713 662.16 594.314C660.987 595.055 659.781 595.751 658.572 596.448C657.863 596.857 657.153 597.267 656.448 597.686C595.804 632.34 515.407 636.132 452.243 603.674C436.339 595.706 421.084 586.505 406.619 576.155C392.113 565.817 378.156 554.731 364.804 542.942C351.393 531.176 338.401 518.893 325.69 506.315C288.004 468.982 257.232 434.395 227.215 400.655C199.932 369.988 173.272 340.021 142.609 309.332C117.201 283.883 90.5604 259.512 61.8482 237.673C58.4429 234.961 54.8666 232.421 51.2979 229.885L50.9568 229.643L39.9534 221.766C-65.5582 149.016 -124.593 166.099 -232.26 241.632C-249.695 253.837 -266.834 266.47 -283.964 279.096L-283.973 279.103L-283.984 279.111L-283.995 279.119L-284.006 279.127L-284.017 279.135L-284.028 279.143L-284.039 279.151L-284.05 279.159L-284.061 279.167L-284.072 279.175L-284.083 279.183L-284.094 279.192L-284.105 279.2L-284.116 279.208L-284.127 279.216L-284.138 279.224C-295.835 287.845 -307.527 296.464 -319.307 304.939C-333.81 315.445 -348.509 325.7 -363.531 335.451C-370.997 340.339 -378.594 345.077 -386.321 349.666C-394.049 354.254 -401.851 358.633 -409.728 362.802C-425.522 371.231 -442.071 378.163 -459.159 383.508C-476.28 388.908 -494.136 391.626 -512.09 391.567C-457.255 392.616 -403.526 368.217 -317.319 307.723C-303.185 297.793 -289.392 287.832 -275.924 278.105L-275.923 278.103L-275.921 278.102L-275.92 278.101L-275.918 278.1L-275.917 278.099C-225.359 241.583 -179.362 208.362 -136.926 192.498C-131.97 190.596 -125.727 188.539 -124.327 188.105C-115.935 185.392 -107.34 183.352 -98.6242 182.006C-97.2464 181.838 -95.8686 181.709 -94.4944 181.581L-94.4902 181.58C-93.6876 181.505 -92.8862 181.431 -92.0867 181.348C-89.9138 181.075 -87.7249 180.949 -85.535 180.97C-81.152 180.769 -76.7603 180.862 -72.3898 181.25C-69.59 181.25 -60.7286 182.509 -59.3287 182.803C-54.9892 183.508 -50.6902 184.442 -46.4495 185.601C-33.9902 188.497 -11.2416 197.059 13.9709 212.491C21.5865 217.065 29.0061 221.99 36.3696 227.082L47.0229 234.931L47.3858 235.191L47.7648 235.463L48.0422 235.662C51.3292 238.018 54.6125 240.371 57.7463 242.919C85.9439 264.861 112.648 288.656 137.681 314.144C166.335 342.884 192.302 372.022 219.139 402.138L219.143 402.143L219.144 402.144L219.145 402.144C250.088 436.868 282.189 472.891 320.903 511.1C333.712 523.691 346.787 536.101 360.422 547.909C374.013 559.789 388.213 570.954 402.966 581.359C417.74 591.82 433.308 601.114 449.527 609.158C461.715 615.304 474.485 620.225 487.646 623.848C546.905 639.769 610.195 629.766 658.702 601.464C660.3 600.49 661.248 599.933 661.954 599.518C662.36 599.28 662.685 599.089 663.008 598.893C664.318 598.095 665.579 597.216 671.962 592.762L672.925 592.09C691.796 576.994 704.269 564.585 723.994 533.638C730.36 523.775 738.695 508.683 746.553 494.455C750.342 487.594 754.02 480.935 757.312 475.159C766.93 458.972 770.499 454.355 780.369 442.422C781.545 441.023 787.83 434.321 789.594 432.754C793.578 428.853 797.785 425.186 802.194 421.772C812.413 413.991 823.616 407.594 835.512 402.745L844.975 399.345C847.402 398.642 849.203 398.118 850.559 397.724L850.608 397.709L850.614 397.707L850.623 397.705C853.932 396.742 854.545 396.564 855.166 396.424C855.306 396.392 855.447 396.362 855.62 396.326C855.797 396.289 856.008 396.244 856.286 396.184C866.093 393.814 876.082 392.27 886.147 391.567C875.49 392.115 864.901 393.575 854.494 395.932C844.812 398.513 844.591 398.591 843.622 398.935L843.619 398.936L843.605 398.941C843.47 398.989 843.32 399.042 843.127 399.108C841.644 399.614 840.444 400.023 839.466 400.357L839.302 400.413ZM668.757 554.918C671.719 552.874 674.684 550.828 677.489 548.594C707.106 526.893 723.721 495.081 740.166 463.597C768.268 409.794 795.87 356.948 887 357.151C837.723 357.962 798.399 374.863 770.401 415.658C760.278 430.579 752.099 446.826 743.825 463.263C735.689 479.423 727.462 495.766 717.204 511.212C706.775 526.378 702.421 531.288 690.606 542.872C689.494 543.845 688.54 544.691 687.668 545.464C682.899 549.693 680.633 551.702 668.879 559.982C667.516 560.833 666.368 561.559 665.34 562.209L665.339 562.21L665.338 562.211L665.33 562.215L665.327 562.217L665.323 562.22C659.873 565.667 657.788 566.985 644.759 573.525C643.039 574.273 641.645 574.893 640.416 575.439L640.408 575.443L640.395 575.449L640.392 575.45C634.834 577.92 632.646 578.893 618.958 583.472C610.132 586.16 601.151 588.313 592.066 589.922C582.977 591.471 573.806 592.499 564.599 593C563.449 593.035 562.299 593.077 561.149 593.12L561.148 593.12L561.147 593.12L561.146 593.12L561.145 593.12L561.145 593.12L561.144 593.12L561.143 593.12L561.142 593.12L561.141 593.12L561.14 593.12L561.14 593.12L561.139 593.12L561.138 593.12L561.137 593.12L561.136 593.12L561.135 593.12C557.684 593.249 554.23 593.377 550.768 593.293C513.922 593.07 476.909 584.521 444.221 567.062C411.757 549.49 383.002 526.252 356.18 501.321C312.136 460.09 263.759 403.751 224.154 357.627L224.141 357.612L224.078 357.539C218.744 351.327 213.57 345.301 208.587 339.523C184.704 311.948 160.822 284.429 135.791 258.071C110.967 231.554 84.3432 206.779 56.1079 183.923C42.0809 172.475 27.3481 161.92 11.9966 152.318C0.538105 145.172 -11.5127 139.022 -24.0232 133.935C-25.4231 133.347 -34.0186 130.158 -36.6225 129.472C-40.8692 128.08 -45.1986 126.954 -49.5857 126.101C-51.7437 125.545 -53.9374 125.138 -56.1513 124.883C-56.5408 124.829 -56.9302 124.773 -57.3198 124.715C-57.7046 124.659 -58.0896 124.601 -58.4746 124.544L-58.4966 124.541L-58.519 124.537L-58.5195 124.537L-58.5201 124.537C-59.9297 124.327 -61.3414 124.116 -62.7589 123.946C-64.3764 123.866 -65.7491 123.768 -67.0472 123.676C-71.1867 123.381 -74.5689 123.14 -82.7217 123.694C-120.393 126.618 -155.671 146.205 -187.869 166.854C-203.086 176.69 -217.94 187.252 -232.485 198.179C-247.03 209.105 -261.351 220.367 -275.686 231.657L-297.133 248.586L-318.538 265.626C-375.892 310.745 -440.022 357.612 -513 357.277C-440.386 356.213 -377.054 308.646 -320.679 262.954C-306.54 251.468 -292.345 239.982 -278.122 228.58L-277.908 228.408C-263.756 217.063 -249.589 205.706 -235.145 194.681C-220.628 183.601 -205.83 172.828 -190.529 162.769C-160.277 142.959 -125.965 123.386 -90.1133 118.56C-86.6516 118.046 -83.1659 117.71 -79.6699 117.552C-78.508 117.468 -77.332 117.468 -76.1701 117.468C-72.8742 117.31 -69.5713 117.523 -66.2714 117.735C-64.9038 117.823 -63.5368 117.911 -62.1709 117.972C-50.5669 119.211 -39.152 121.827 -28.167 125.765C-27.4496 126.027 -26.7292 126.278 -26.0093 126.529L-26.0079 126.53L-26.0064 126.53L-26.0049 126.531L-26.0035 126.532C-24.5337 127.044 -23.0657 127.557 -21.6293 128.157L-21.4317 128.24L-21.2575 128.313L-21.0691 128.392C-20.669 128.559 -20.2431 128.735 -19.7911 128.923L-19.7814 128.927C-8.84483 133.458 17.2805 144.282 60.3497 178.718C89.048 201.466 115.618 226.831 140.845 253.315C166.071 279.798 190.052 307.331 213.934 334.892C219.999 341.922 226.26 349.225 232.686 356.72L232.728 356.769L232.728 356.769C271.649 402.166 316.617 454.617 360.772 496.438C386.39 520.712 415.998 544.789 447.132 561.745C473.042 575.476 501.392 584.002 530.581 586.844C541.797 587.999 553.083 588.331 564.347 587.837C573.353 587.422 582.328 586.487 591.226 585.039C600.12 583.559 608.914 581.532 617.558 578.967C626.187 576.356 634.637 573.188 642.855 569.482C655.675 563.169 657.725 561.899 662.873 558.712C663.919 558.063 665.094 557.336 666.513 556.471C667.259 555.951 668.008 555.435 668.757 554.918ZM-366.037 265.08C-351.366 255.175 -337.002 244.85 -322.821 234.302C-310.968 225.457 -299.238 216.471 -287.513 207.489L-287.512 207.487C-271.195 194.988 -254.889 182.496 -238.28 170.408C-211.066 150.611 -178.588 128.437 -149.022 114.446C-116.823 99.253 -82.8195 91.1806 -48.0596 98.6794C-41.7098 100.07 -35.4649 101.903 -29.3708 104.164C-1.7924 113.957 21.9082 127.332 45.8048 143.854C60.2239 153.815 74.0831 164.658 87.5643 175.948C94.3259 181.544 100.947 187.364 107.555 193.184L117.354 202.054C118.2 202.826 119.048 203.595 119.896 204.364L119.897 204.365C122.308 206.551 124.72 208.738 127.07 210.994C152.814 235.043 177.467 260.226 201.909 285.73C209.911 294.07 217.887 302.447 225.867 310.829L225.869 310.83C266.615 353.625 307.476 396.54 352.428 435.287C379.223 458.427 407.347 480.475 438.593 497.809C454.246 506.504 470.766 513.537 487.884 518.795C532.107 531.904 592.948 529.833 645.459 508.036C653.692 504.554 661.673 500.501 669.341 495.907C692.37 482.532 710.807 461.463 725.8 439.722C734.162 427.668 740.808 417.031 746.834 407.385C759.783 386.659 769.871 370.512 787.984 354.73C815.814 330.625 849.048 322.777 886.16 322.972C848.824 322.035 815.506 329.198 786.766 353.317C768.629 368.247 756.347 387.235 742.525 408.605C736.503 417.914 730.189 427.675 722.972 437.749C694.424 478.568 670.286 491.033 658.052 497.351C657.208 497.787 656.421 498.194 655.692 498.579C654.292 499.32 645.235 503.42 643.737 503.951C591.94 524.937 532.191 526.238 489.55 513.171C440.161 498.089 396.288 464.82 356.754 430.334C311.894 391.402 270.898 348.231 229.868 305.026L229.868 305.025L229.867 305.025L229.867 305.024L229.866 305.024L229.866 305.023L229.865 305.022L229.865 305.022L229.864 305.021L229.864 305.021L229.863 305.02L229.862 305.02L229.862 305.019L229.861 305.019L229.861 305.018L229.86 305.018L229.86 305.017L229.859 305.016C222.237 296.99 214.613 288.962 206.963 280.959C182.479 255.455 157.658 230.202 131.732 206.055C129.362 203.791 126.932 201.595 124.503 199.401L124.498 199.396C124.041 198.984 123.584 198.571 123.128 198.158C122.729 197.797 122.33 197.436 121.932 197.073L112.133 188.161C105.483 182.314 98.8056 176.494 91.974 170.828C78.3527 159.453 64.3396 148.443 49.6405 138.468C35.0006 128.291 19.6246 119.214 3.6393 111.313C-6.36588 106.336 -16.6813 102.009 -27.2428 98.3576C-33.5934 96.0494 -40.0949 94.1796 -46.7017 92.7615C-101.116 81.3034 -151.121 105.968 -197.361 136.383C-212.158 146.176 -226.591 156.417 -240.758 166.952C-257.796 179.616 -274.517 192.662 -291.229 205.701L-291.244 205.713L-291.25 205.717L-291.255 205.722L-291.261 205.726L-291.266 205.73L-291.272 205.734L-291.277 205.738L-291.283 205.743L-291.288 205.747L-291.294 205.751L-291.299 205.755L-291.305 205.759L-291.31 205.764L-291.316 205.768L-291.321 205.772L-291.327 205.776L-291.332 205.78L-291.338 205.785C-302.45 214.455 -313.558 223.123 -324.753 231.671C-346.284 248.194 -366.891 263.192 -389.373 277.728C-392.335 279.554 -393.353 280.214 -394.156 280.735C-395.591 281.667 -396.341 282.153 -406.298 288.066C-422.383 297.118 -438.188 305.568 -460.181 312.997C-462.169 313.739 -471.38 316.467 -472.78 316.844C-473.786 317.081 -474.826 317.342 -475.946 317.623L-475.959 317.627C-479.808 318.594 -484.597 319.797 -492.169 321.042C-492.359 321.066 -492.908 321.14 -493.657 321.239L-493.689 321.244C-496.321 321.594 -501.35 322.264 -501.968 322.329L-511.88 323.028C-475.79 321.993 -442.794 310.213 -411.086 292.977C-395.594 284.468 -380.557 275.156 -366.037 265.08ZM-155.965 88.2146C-171.098 95.9806 -185.826 104.512 -200.091 113.775C-214.496 123.009 -228.593 132.662 -242.606 142.595C-259.914 154.911 -276.554 167.206 -292.705 179.14C-369.556 235.923 -435.375 284.554 -509.71 288.612C-436.508 283.106 -373.03 235.138 -297.139 177.79C-280.478 165.2 -263.218 152.158 -245.126 139.014C-198.579 105.213 -152.326 75.2876 -110.02 64.4731C-108.816 64.208 -107.617 63.9239 -106.418 63.6397L-106.41 63.6377C-103.372 62.9178 -100.334 62.198 -97.2248 61.787C-92.9283 60.9726 -88.5846 60.4305 -84.2196 60.164C-82.0459 59.9031 -79.8572 59.7863 -77.6681 59.8143C-73.2848 59.5903 -68.8908 59.6933 -64.5228 60.1221C-62.3293 60.2073 -60.1422 60.4128 -57.9712 60.7377C-40.7533 63.3632 -23.907 68.0171 -7.78428 74.6021C8.23446 81.1445 23.7501 88.8553 38.637 97.6721C53.5461 106.458 67.9092 115.916 81.8103 126.045C95.7115 136.174 109.459 146.512 122.772 157.383C149.496 178.928 175.129 201.816 200.327 225.096C214.141 237.885 227.562 250.471 240.67 262.763C329.518 346.079 403.969 415.895 488.584 443.863C528.817 454.971 563.941 455.181 605.071 448.703C614.504 447.051 623.849 444.927 633.069 442.338C649.868 437.119 655.16 434.545 668.067 427.774C669.467 427.018 676.803 422.597 678.86 421.1C708.258 400.876 726.968 377.362 744.232 355.664C757.493 338.998 769.901 323.403 785.646 311.192C815.464 288.108 845.534 286.276 883.64 288.598C818.852 285.968 791.246 298.755 752.048 350.044L751.943 350.181L751.943 350.181C736.124 370.896 715.639 397.723 691.418 416.666C689.859 417.87 688.941 418.592 688.292 419.104C687.811 419.483 687.477 419.745 687.138 420.002C686.373 420.584 685.585 421.135 683.014 422.933L683.012 422.934L681.963 423.669L680.974 424.36C678.832 425.997 671.385 430.586 669.985 431.355C656.896 438.351 651.394 441.149 634.217 446.493C621.778 450.135 609.108 452.939 596.293 454.887L595.303 455.02L594.35 455.149L592.673 455.375C587.189 456.115 585.651 456.322 583.442 456.51C556.326 459.308 531.841 458.315 512.312 455.027C503.73 453.693 495.239 451.824 486.89 449.431C468.278 443.633 450.304 435.959 433.245 426.529C366.438 390.981 286.507 315.754 221.073 254.169L221.07 254.167L221.069 254.165C212.285 245.898 203.762 237.877 195.568 230.23C170.495 206.951 145.017 184.188 118.418 162.741C86.4861 136.859 58.6137 116.573 24.1618 97.0146C23.3527 96.5857 22.5166 96.14 21.6515 95.6788C9.93032 89.43 -7.09476 80.3537 -34.1726 72.2237C-42.2256 69.8543 -50.4353 68.0545 -58.7411 66.8374C-60.8047 66.5149 -62.8844 66.3047 -64.9708 66.2079C-69.1457 65.7663 -73.3481 65.64 -77.542 65.8301C-79.6371 65.7909 -81.7325 65.8937 -83.8137 66.1379C-87.9988 66.3752 -92.1646 66.8752 -96.2869 67.6349C-99.2343 68.0105 -102.133 68.6725 -105.032 69.3345L-105.033 69.3349C-106.237 69.6098 -107.441 69.8847 -108.648 70.1391C-125.013 74.1544 -140.762 80.6739 -155.965 88.2146ZM-244.902 115.006C-231.276 105.54 -217.492 96.3433 -203.548 87.4174C-116.152 31.4562 -63.9909 18.2353 26.0377 63.6339C55.3711 78.8572 83.5975 96.1219 110.509 115.3C111.026 115.665 111.543 116.028 112.061 116.392C112.544 116.731 113.028 117.07 113.512 117.409C115.894 119.078 118.279 120.75 120.644 122.463L130.639 129.808L135.637 133.474L140.579 137.237L150.462 144.75C163.528 154.907 176.487 165.227 189.338 175.711C204.004 187.644 218.947 200.064 234.081 212.642L234.087 212.648L234.122 212.677L234.124 212.678L234.126 212.68L234.128 212.682L234.13 212.683L234.132 212.685L234.134 212.687L234.134 212.687L234.135 212.688L234.136 212.688C329.942 292.318 433.404 378.312 522.924 387.916C548.948 390.714 587.474 388.727 610.489 385.551C613.409 385.221 616.269 384.673 619.129 384.126C620.382 383.886 621.634 383.646 622.892 383.425C655.944 376.84 686.808 362.051 712.641 340.419C725.213 330.435 735.651 318.845 745.926 307.437C768.075 282.843 789.466 259.092 829.841 254.084C846.276 252.014 862.963 253.133 879.482 254.49C854.102 251.874 829.295 249.943 805.287 258.435C780.098 267.28 762.442 285.941 743.741 305.707C729.547 320.709 714.752 336.347 695.604 348.813C694.235 349.695 693.145 350.4 692.248 350.981L692.243 350.984L692.238 350.987C690.234 352.284 689.188 352.96 688.127 353.611C686.973 354.318 685.8 354.995 683.353 356.407L683.351 356.408C682.393 356.961 681.238 357.627 679.812 358.452C651.688 373.492 626.826 379.731 597.609 382.39C574.679 384.222 546.344 385.188 523.526 382.557C437.418 372.916 334.686 287.406 239.166 207.899C223.807 195.115 208.635 182.486 193.748 170.352C180.859 159.831 167.835 149.493 154.676 139.336L144.737 131.795L139.767 128.017L134.727 124.338L124.648 116.965C122.657 115.529 120.641 114.117 118.627 112.706L118.624 112.704L118.621 112.702L118.618 112.7L118.616 112.698L118.613 112.696L118.61 112.694L118.607 112.692L118.605 112.69L118.602 112.688L118.599 112.686L118.596 112.684L118.594 112.682L118.582 112.674C117.199 111.704 115.816 110.736 114.442 109.76C66.8453 76.4491 29.3416 56.8066 6.18704 47.2932C0.475369 44.8169 -11.6899 40.2981 -17.4856 38.6752C-25.5321 36.1432 -33.7342 34.1337 -42.0402 32.6593C-50.3589 31.149 -58.7854 30.3068 -67.2387 30.141C-75.7142 29.9754 -84.188 30.5512 -92.5631 31.862C-94.201 32.0718 -103.426 33.8485 -105.008 34.2823C-105.655 34.4461 -106.303 34.6082 -106.951 34.7703C-110.396 35.6325 -113.843 36.4955 -117.202 37.6259C-131.677 41.907 -150.254 50.2172 -163.399 57.4502C-208.487 82.5471 -251.191 113.771 -292.437 143.93L-292.438 143.931L-292.439 143.931C-364.156 196.37 -431.467 245.587 -499.253 253.776L-505.44 254.518L-499.239 253.902C-429.91 246.995 -360.532 197.384 -287.567 145.209L-287.564 145.206L-287.532 145.183L-287.519 145.174C-273.455 135.117 -259.258 124.966 -244.902 115.006ZM104.153 69.0059C76.6657 52.5938 48.0229 38.1973 18.45 25.9297C-73.5665 -11.4943 -123.767 4.65042 -245.56 87.0534C-259.486 96.4815 -272.961 105.806 -286.081 114.884L-286.091 114.891L-286.103 114.899C-363.056 168.147 -427.792 212.942 -499.547 220.675C-429.353 211.559 -367.463 167.741 -290.733 113.416C-277.024 103.71 -262.841 93.6687 -248.052 83.4299C-112.89 -10.0394 -64.6631 -20.3223 48.7301 31.9316L54.1898 34.5898L65.1091 39.8921C67.9536 41.2697 70.7469 42.7584 73.5356 44.2447L73.5448 44.2496C73.9508 44.4661 74.3568 44.6824 74.7628 44.8984L75.2876 45.1772C75.4832 45.281 75.6789 45.3847 75.8745 45.4882C76.974 46.0699 78.0762 46.6477 79.1786 47.2256C81.6553 48.5238 84.133 49.8226 86.584 51.1683L97.1392 57.1282C97.8932 57.5561 98.6497 57.9828 99.4073 58.4101L99.414 58.4139L99.4149 58.4145L99.4159 58.415L99.4168 58.4156L99.4177 58.4161L99.4186 58.4167L99.4195 58.4172L99.4204 58.4178L99.4214 58.4183L99.4223 58.4189L99.4232 58.4194L99.4241 58.42L99.425 58.4205L99.4259 58.4211L99.4268 58.4216L99.4278 58.4222L99.4287 58.4227C102.18 59.9744 104.944 61.5328 107.639 63.186C135.455 79.6526 162.263 97.6862 188.54 116.349C208.419 130.55 228.693 145.612 249.191 160.841C327.584 219.083 409.251 279.757 484.636 303.945L484.89 304.017L485.253 304.119L485.297 304.132C488.665 305.081 499.317 308.084 504.879 309.108C505.92 309.313 506.96 309.525 508 309.737C510.863 310.321 513.729 310.905 516.624 311.346C547.436 316.593 580.852 316.803 612.28 314.438C647.432 311.78 675.486 302.029 702.477 285.716C717.705 276.461 729.833 265.976 741.546 255.85L741.547 255.849L741.547 255.849L741.547 255.849C753.577 245.449 765.169 235.427 779.234 227.502C810.603 209.746 838.147 214.534 873.492 220.677L873.645 220.703C872.729 220.564 871.814 220.425 870.898 220.286L870.896 220.285L870.893 220.285L870.893 220.285C855.921 218.005 840.842 215.709 825.725 216.17C789.167 217.194 767.959 235.97 743.879 257.289C722.528 276.191 698.92 297.093 660.353 309.388C644.861 314.34 628.855 317.513 612.644 318.845C580.978 321.531 547.142 321.671 515.742 316.649C512.676 316.222 509.634 315.632 506.586 315.04C505.64 314.857 504.693 314.673 503.745 314.494C502.419 314.262 501.111 313.957 499.801 313.651L499.8 313.651C499.133 313.495 498.466 313.339 497.795 313.193C487.864 310.952 478.083 308.093 468.509 304.631C396.951 279.003 310.071 214.595 237.626 160.888C218.756 146.899 200.865 133.636 184.48 121.973C158.33 103.338 131.717 85.3746 104.153 69.0059ZM55.9544 5.39238C98.8618 23.426 140.159 46.3281 179.581 70.7272C203.139 85.163 226.28 100.192 249.48 115.259C252.474 117.203 255.469 119.148 258.466 121.092C284.687 138.105 311.075 154.837 337.925 170.884C386.922 200.152 453.054 235.743 509.135 247.383C525.458 250.839 538.757 251.496 556.2 251.58C564.04 251.58 571.837 251.58 579.593 251.692C599.262 252.112 623.956 252.588 650.037 248.027C692.088 240.629 717.021 222.994 739.29 207.243C763.349 190.226 784.298 175.409 820.364 178.075C835.903 179.194 851.163 183.195 866.142 187.281C843.183 180.481 820.574 174.13 796.958 177.487C774.118 180.594 756.883 192.275 737.747 205.244C724.735 214.063 710.844 223.478 693.714 231.196C653.807 249.26 610.193 247.99 579.907 247.109L579.705 247.103C574.13 246.944 568.853 246.895 563.712 246.848C528.276 246.522 499.257 246.254 423.166 210.127C395.168 196.696 367.996 181.419 341.341 165.358C314.687 149.297 288.34 132.536 262.19 115.51C260.223 114.23 258.256 112.948 256.289 111.667L256.283 111.663L256.281 111.662L256.28 111.661L256.279 111.66L256.277 111.659L256.276 111.658L256.275 111.657L256.274 111.657C232.093 95.9071 207.88 80.1371 183.249 64.9772C156.608 48.5805 129.394 33.0092 101.354 18.9629C67.0417 2.17461 23.1263 -17.0341 -14.1674 -24.6308C-19.3471 -25.6661 -26.6687 -27.0512 -31.7224 -27.5969C-71.0055 -32.8505 -98.8879 -23.924 -111.582 -19.8601L-111.694 -19.8243C-112.116 -19.6893 -112.52 -19.5597 -112.908 -19.4364L-113.147 -19.3603L-113.301 -19.3116C-113.495 -19.2502 -113.685 -19.1905 -113.869 -19.1327C-115.367 -18.643 -122.983 -15.8869 -124.985 -15.0335C-139.57 -9.12851 -153.757 -2.28696 -167.458 5.44839C-211.88 30.2397 -252.041 57.9839 -290.112 84.2836C-360.02 132.578 -422.877 176 -492.113 187.323C-421.434 177.36 -356.838 133.838 -285.562 85.817C-247.837 60.4 -208.241 33.7224 -164.882 10.0932C-86.1931 -32.8712 -36.7201 -33.8924 55.9544 5.39238ZM93.5699 -17.4122C-23.4491 -65.2591 -69.5623 -58.0261 -123.767 -36.6349C-152.213 -25.4007 -180.52 -8.86411 -203.884 5.37808C-227.831 19.8793 -251.263 35.7484 -274.667 51.598L-274.667 51.5985C-340.699 96.3176 -406.5 140.881 -482.986 154.123C-408.121 139.354 -344.904 95.4836 -278.787 49.6011L-278.786 49.6004L-278.785 49.5996L-278.784 49.5989L-278.783 49.5982L-278.782 49.5974L-278.781 49.5967L-278.78 49.596L-278.779 49.5952L-278.777 49.5945L-278.776 49.5938L-278.775 49.593L-278.774 49.5923L-278.773 49.5918C-243.181 24.8919 -206.749 -0.390965 -167.207 -22.029C-136.898 -38.6355 -110.314 -50.3033 -76.5058 -57.0047C-19.7113 -66.7 42.193 -45.6447 96.1178 -23.7219C124.354 -12.1518 151.75 1.16705 178.713 15.1573C206.101 29.4404 234.544 45.3663 263.36 61.5005C330.312 98.9876 399.272 137.599 461.664 159.342C505.041 174.079 544.639 176.368 580.888 178.463L580.889 178.463C585.796 178.747 590.641 179.027 595.426 179.334C610.481 180.429 625.586 180.699 640.671 180.145C679.769 178.254 707.28 165.212 731.58 153.693C748.443 145.699 763.759 138.438 780.327 136.146C808.918 132.45 832.866 143.215 855.776 153.512L857.042 154.081C856.43 153.822 855.812 153.56 855.188 153.295L855.04 153.232L854.969 153.202C832.33 143.588 801.638 130.554 769.589 140.217C757.338 143.734 745.476 149.621 732.682 155.971C708.43 168.007 680.829 181.704 640.881 184.077C625.66 184.797 610.411 184.685 595.202 183.741C590.401 183.484 585.555 183.254 580.662 183.022C543.666 181.265 503.929 179.379 459.802 164.91C445.299 159.985 431.146 154.389 417.146 148.401C365.555 126.272 310.596 95.6511 257.569 66.1066L257.568 66.1062L257.568 66.1058L257.567 66.1055L257.566 66.1051L257.565 66.1047L257.565 66.1044L257.564 66.104L257.563 66.1036L257.562 66.1033L257.562 66.1029L257.561 66.1025L257.56 66.1022C229.395 50.4095 201.774 35.0206 175.493 21.3691C148.671 7.37872 121.484 -5.89814 93.5699 -17.4122ZM-37.2667 -83.5723C-35.8752 -83.6307 -34.8895 -83.6079 -31.8228 -83.5368L-31.8173 -83.5368L-31.7395 -83.535L-31.6305 -83.5324C-30.3119 -83.502 -28.6209 -83.4631 -26.3753 -83.4183C44.4464 -78.4798 108.661 -53.2133 173.015 -24.4912C198.269 -13.2823 225.492 -0.453549 253.621 12.8026C306.7 37.8162 363.008 64.3513 415.41 84.3956C485.391 111.494 523.781 112.398 552.284 113.069C557.626 113.195 562.622 113.313 567.413 113.593C570.863 113.803 575.659 114.23 581.39 114.741L581.397 114.741L581.406 114.742C600.878 116.476 631.125 119.169 656.028 117.581C657.625 117.581 659.232 117.434 660.859 117.286L660.862 117.286C661.116 117.263 661.372 117.24 661.627 117.217C670.9 116.564 680.121 115.316 689.234 113.481C700.15 111.377 710.845 107.994 721.483 104.63C735.673 100.142 749.759 95.686 764.129 94.3427C794.605 91.5446 820.056 105.367 846.262 121.442C827.447 109.284 808.241 97.6584 786.234 93.6712C763.769 89.5933 745.046 95.029 723.149 101.386C711.166 104.865 698.232 108.62 683.214 111.243C666.889 113.672 650.376 114.608 633.881 114.041C614.524 113.486 596.43 111.669 582.796 110.301L582.795 110.3C576.847 109.703 571.747 109.191 567.763 108.907C559.651 108.344 552.874 108.116 546.514 107.903C532.798 107.443 521.019 107.048 501.967 103.492C457.254 95.0982 415.536 79.9047 336.469 43.8656C306.768 30.4476 278.804 17.1774 252.09 4.50031L252.082 4.49701L252.067 4.48969L252.046 4.4798L252.027 4.47101L252.02 4.46735L252.001 4.4582L251.992 4.45417L251.988 4.45197L251.968 4.44245L251.963 4.43989C154.257 -41.9282 73.2701 -80.362 -14.8259 -89.1265C-69.5207 -94.219 -116.418 -76.6331 -164.155 -50.4012C-205.663 -27.7197 -244.179 -2.16172 -281.123 22.3533C-347.111 66.1409 -408.085 106.601 -472.137 121.4C-406.402 107.837 -342.774 66.7617 -275.162 23.1142L-275.161 23.1134L-275.157 23.1109C-238.781 -0.372047 -201.252 -24.5991 -161.621 -45.6865C-121.948 -66.8958 -81.98 -82.8449 -37.2667 -83.5723ZM-388.659 63.788C-391.025 64.9212 -406.046 71.5666 -408.482 72.5319C-411.053 73.5359 -413.164 74.3631 -414.935 75.0573C-420.007 77.0446 -422.295 77.9409 -424.606 78.7689C-426.505 79.4489 -428.42 80.083 -431.907 81.2374C-433.069 81.6222 -434.406 82.0648 -435.974 82.5861C-436.891 82.8905 -437.886 83.2218 -438.972 83.5842C-439.53 83.7693 -439.922 83.9045 -440.258 84.0206C-442.13 84.6673 -442.269 84.7151 -459.789 89.4601C-456.057 88.3373 -453.119 87.455 -450.788 86.7548L-450.786 86.7545C-443.284 84.5015 -442.063 84.1346 -440.862 83.7092C-440.399 83.5454 -439.94 83.3729 -439.126 83.0806C-436.233 82.0408 -433.998 81.2423 -432.203 80.6011C-428.592 79.3112 -426.766 78.6587 -424.956 77.961C-423.119 77.2528 -421.301 76.4977 -417.651 74.9822L-417.635 74.9756L-417.629 74.973L-417.611 74.9657L-417.592 74.9578L-417.576 74.9511L-417.57 74.9487L-417.569 74.9479L-417.555 74.9425L-417.51 74.9234C-415.382 74.0397 -412.639 72.9008 -408.93 71.3707C-406.312 70.2794 -391.515 63.3963 -389.331 62.305C-342.67 38.476 -304.656 12.7453 -266.013 -13.4109C-233.031 -35.7356 -199.592 -58.3701 -159.927 -80.3965C-88.8252 -120.059 -47.1637 -125.095 7.1251 -118.828C97.2549 -108.102 188.061 -70.7349 275.566 -34.726C338.614 -8.78142 399.947 16.4578 458.08 30.519C490.46 38.4204 515.211 40.4056 540.875 42.464C555.244 43.6164 569.899 44.7919 586.34 47.0416C588.933 47.3988 591.504 47.7724 594.066 48.1447L594.079 48.1466L594.096 48.149C598.647 48.8103 603.169 49.4673 607.731 50.0215C656.042 56.0907 681.004 53.1351 705.522 50.2319C708.698 49.8558 711.866 49.4807 715.077 49.1261C737.153 46.7757 747.919 45.9784 769.099 51.1827C784.862 55.9535 798.036 61.9273 817.06 75.9177C822.786 80.2546 828.386 84.8015 833.859 89.4883C776.755 43.0462 746.48 47.3121 706.918 52.8867C696.27 54.387 684.95 55.9821 672.253 56.709C643.275 58.3178 614.213 55.4638 585.71 51.4206C567.202 49.0927 552.001 48.0832 537.541 47.123L537.54 47.123C503.595 44.8687 473.734 42.8858 414.753 24.755C363.203 8.73384 314.105 -11.4242 265.242 -31.4857L265.241 -31.4864L265.239 -31.4871L265.235 -31.4889C194.757 -60.4257 124.768 -89.1612 48.6186 -104.991C-33.1225 -121.78 -76.7159 -119.541 -157.407 -75.7096C-195.48 -55.1153 -228.522 -33.4367 -263.964 -10.1835L-263.965 -10.1827L-263.977 -10.1747L-264.001 -10.1593C-282.408 1.91713 -301.462 14.4186 -322.205 27.4131C-343.681 40.7323 -365.865 52.8751 -388.659 63.788ZM-57.6212 -136.652C26.3846 -151.323 150.754 -109.215 259.2 -72.4981L259.201 -72.4977C285.192 -63.6978 310.269 -55.2076 333.655 -47.883C426.507 -19.0254 459.263 -17.2881 496.111 -15.3337C509.569 -14.6199 523.572 -13.8772 541.249 -11.7738C544.791 -11.4102 551.986 -10.3749 561.954 -8.68204L582.742 -4.97464C637.577 4.43577 659.722 4.40269 682.129 4.36924L682.13 4.36924L682.134 4.36924C690.473 4.35679 698.848 4.34434 708.959 4.81859C709.211 4.83202 709.481 4.84581 709.77 4.86058C712.8 5.01524 717.835 5.27245 724.61 6.21764C741.767 9.06163 747.092 11.1835 759.241 16.0245L759.734 16.2208C766.13 19.0829 772.335 22.3541 778.311 26.014C793.57 35.2197 807.611 46.9995 819.916 58.1918C789.58 29.3017 761.218 8.72203 719.668 3.29369C716.676 2.86473 713.703 2.64891 710.691 2.43016C710.166 2.39207 709.64 2.35387 709.113 2.31444C698.668 1.62511 690.006 1.47349 681.355 1.32213C658.932 0.92979 636.592 0.538796 583.526 -9.21365C580.731 -9.74551 578.127 -10.244 575.678 -10.7129C548.044 -16.0039 540.155 -17.5143 499.699 -20.4059C469.223 -22.5324 454.776 -23.8335 432.041 -28.1985C376.854 -39.9815 316.43 -60.3254 255.553 -80.8216C151.196 -115.957 45.509 -151.54 -37.4064 -145.214C-46.3054 -144.597 -55.1593 -143.447 -63.9208 -141.772C-65.0086 -141.535 -65.9599 -141.329 -66.7982 -141.147C-71.4622 -140.135 -72.6297 -139.882 -74.3503 -139.408C-129.947 -125.566 -190.726 -85.5624 -252.932 -44.6194C-307.04 -9.0056 -362.229 27.319 -416.028 47.7548C-418.193 48.5818 -419.882 49.232 -421.267 49.7648L-421.298 49.7765C-423.787 50.7346 -425.288 51.3121 -426.8 51.8582C-429.09 52.6851 -431.406 53.4399 -437.221 55.3349L-437.232 55.3384L-437.252 55.3452L-437.256 55.3463C-439.531 56.0874 -442.339 57.0026 -445.888 58.1636L-435.781 55.1278C-370.074 35.4109 -307.226 -4.99119 -246.754 -43.8663L-246.753 -43.867C-181.117 -86.0617 -118.279 -126.457 -57.6212 -136.652ZM-56.7117 -159.722C-73.4583 -157.407 -89.8632 -153.076 -105.569 -146.823C-149.425 -130.08 -195.174 -100.946 -242.993 -70.4922C-287.599 -42.0853 -334.006 -12.531 -382.36 9.18324C-403.294 18.3744 -411.938 21.2659 -423.421 25.1077C-425.607 25.8389 -427.896 26.6045 -430.392 27.4546C-428.572 26.7833 -426.794 26.134 -425.032 25.4907L-424.939 25.4567C-409.586 19.8507 -395.356 14.6547 -364.469 -1.02965C-329.38 -18.7187 -291.936 -43.2674 -254.125 -68.0571L-254.124 -68.0578C-189.809 -110.224 -124.432 -153.086 -67.7711 -164.073C-51.0001 -167.571 -21.0699 -169.865 15.0199 -166.871C84.5464 -160.889 167.27 -137.457 245.27 -115.363L245.273 -115.362C308.101 -97.5651 367.865 -80.6364 415.2 -74.3949C428.688 -72.6316 442.266 -71.6368 455.867 -71.415C496.054 -69.7952 528.892 -63.7908 555.87 -58.8579C563.842 -57.4002 571.303 -56.036 578.29 -54.9063C595.658 -52.1316 610.119 -50.2348 624.974 -48.2863L624.981 -48.2852C643.829 -45.8128 663.312 -43.2571 690.171 -38.7195C707.177 -35.65 723.617 -30.0177 738.93 -22.015C763.821 -9.00404 784.078 7.86828 804.418 27.4547C784.204 9.01549 762.589 -8.23463 738.104 -20.3643C713.88 -32.2973 694.904 -35.0714 681.855 -36.979L681.774 -36.9907L681.38 -37.0484L681.335 -37.0549L680.278 -37.2101L680.257 -37.213C680.058 -37.2424 679.86 -37.2716 679.664 -37.3008L679.532 -37.3205C663.815 -39.5755 647.117 -41.5901 630.385 -43.6087L630.38 -43.609L630.374 -43.6098L630.365 -43.6109C604.957 -46.6761 579.473 -49.7504 557.235 -53.6891C498.483 -63.8747 472.958 -64.8399 451.018 -65.6696C424.319 -66.6792 402.929 -67.4882 333.431 -84.4678C301.182 -92.4062 267.864 -101.797 234.305 -111.255L234.297 -111.258L234.29 -111.259L234.284 -111.261C159.088 -132.455 82.6836 -153.989 14.39 -160.296C-9.26295 -162.644 -33.0998 -162.452 -56.7117 -159.722ZM-98.0927 -171.25C-10.6534 -195.392 103.875 -167.61 210.886 -141.653L210.89 -141.651C253.206 -131.387 294.346 -121.408 332.171 -115.037C365.18 -109.504 379.07 -109.442 395.022 -109.371C413.439 -109.288 434.603 -109.193 491.104 -100.655L513.69 -97.109C552.861 -90.9602 563.634 -89.2692 574.408 -87.5869C578.456 -86.955 582.504 -86.3244 588.058 -85.4591C593.364 -84.6326 600.044 -83.5918 609.411 -82.1314C609.946 -82.0459 610.48 -81.961 611.011 -81.8765C612.038 -81.7129 613.058 -81.5512 614.07 -81.3909C615.026 -81.2395 615.975 -81.0895 616.917 -80.9407L618.316 -80.7196C681.301 -70.7705 714.747 -65.4873 787.48 -2.45643C758.6 -28.8562 726.052 -54.9061 688.086 -68.5048C663.86 -77.1864 641.236 -80.9313 596.357 -88.3598C588.514 -89.658 579.991 -91.0688 570.661 -92.6381C559.242 -94.5714 548.901 -96.3329 539.461 -97.9409L539.459 -97.9413C485.166 -107.19 460.674 -111.361 432.363 -113.959C420.184 -115.147 408.737 -115.355 397.404 -115.561C389.105 -115.712 380.867 -115.861 372.447 -116.394C362.396 -117.009 352.232 -118.268 333.249 -121.57C295.494 -128.145 255.2 -137.965 214.197 -147.957L214.191 -147.959L214.19 -147.959C162.713 -160.504 110.122 -173.321 60.0417 -180.329C-74.6302 -199.916 -123.347 -175.419 -207.16 -123.151C-229.636 -109.095 -249.644 -96.0968 -268.166 -84.0637L-268.171 -84.0608C-321.103 -49.6728 -361.898 -23.1693 -413.48 -2.4005C-361.683 -21.917 -319.224 -47.883 -272.578 -77.2068C-187.939 -130.748 -143.184 -158.882 -98.0927 -171.25ZM170.438 -171.387C87.368 -187.801 3.5454 -204.364 -70.9905 -196.349C-134.408 -190.684 -201.112 -147.455 -266.842 -104.858C-298.356 -84.4342 -329.645 -64.1561 -360.241 -48.2331C-371.623 -42.1754 -383.312 -36.7052 -395.071 -31.4448C-369.117 -43.9242 -353.2 -52.9759 -327.497 -68.8269C-310.446 -79.5112 -292.738 -91.4129 -274.616 -103.593L-274.613 -103.595L-274.606 -103.599C-214.996 -143.663 -150.915 -186.733 -91.0233 -199.371C-83.3937 -200.868 -72.7684 -202.7 -52.2317 -203.917C20.676 -208.182 97.9219 -192.839 174.415 -177.646L174.417 -177.645C227.409 -167.12 280.04 -156.666 330.617 -152.853C342.608 -152.002 353.447 -151.591 364.683 -151.164C403.73 -149.681 447.574 -148.016 561.197 -127.124C646.228 -111.511 691.908 -98.5983 769.043 -31.4447C691.362 -95.4505 647.474 -107.958 560.456 -122.773C447.508 -142.093 404.93 -143.451 365.888 -144.696L365.887 -144.696L365.886 -144.696L365.885 -144.696L365.883 -144.696L365.882 -144.696L365.879 -144.696L365.876 -144.696C354.258 -145.067 342.952 -145.428 330.197 -146.249C279.161 -149.903 224.962 -160.613 170.438 -171.387ZM-143.548 -198.055C-115.242 -209.359 -74.2382 -215.795 -43.8461 -216.424C17.4423 -218.803 99.7992 -206.953 178.405 -195.033C243.398 -185.258 283.58 -183.868 323.577 -182.484C365.269 -181.042 406.76 -179.607 475.943 -168.689C551.048 -156.21 614.352 -143.871 687.666 -101.536C689.682 -100.43 701.665 -93.1415 703.611 -91.8684C719.368 -81.853 734.604 -71.0431 749.262 -59.4807C696.065 -103.69 645.43 -130.384 586.382 -149.271C584.912 -149.71 583.547 -150.125 582.206 -150.533C575.004 -152.722 568.499 -154.7 550.194 -159.064C538.043 -161.974 525.85 -164.562 513.614 -167.038C426.369 -184.822 373.929 -186.974 321.091 -189.143L321.086 -189.144L321.081 -189.144L321.075 -189.145L321.068 -189.145C299.382 -190.035 277.627 -190.928 253.37 -192.906C226.404 -195.092 193.898 -199.793 159.005 -204.839C92.7114 -214.426 17.8019 -225.259 -44.0981 -222.454C-69.2301 -221.596 -94.187 -217.931 -118.504 -211.528C-120.376 -210.952 -122.257 -210.404 -124.139 -209.855C-128.293 -208.644 -132.446 -207.434 -136.493 -205.932C-190.517 -186.057 -239.137 -151.667 -289.18 -116.272C-299.41 -109.036 -309.699 -101.759 -320.106 -94.5547L-321.777 -93.4264C-331.401 -86.9271 -335.409 -84.2204 -339.463 -81.5847C-342.353 -79.7062 -345.266 -77.8635 -350.252 -74.7096L-350.262 -74.7037C-351.508 -73.9155 -352.884 -73.0454 -354.421 -72.0724C-355.861 -71.161 -357.442 -70.1594 -359.191 -69.0503C-362.654 -66.9083 -366.164 -64.8441 -369.675 -62.7794C-371.53 -61.6886 -373.386 -60.5975 -375.234 -59.4949C-373.979 -60.1974 -372.78 -60.8679 -371.631 -61.5106L-371.628 -61.5121C-351.199 -72.938 -346.473 -75.5813 -319.238 -93.1836C-305.555 -102.232 -292.888 -110.784 -280.906 -118.873C-231.18 -152.445 -193.264 -178.044 -143.548 -198.055ZM-123.198 -226.999C-123.517 -226.9 -123.835 -226.796 -124.397 -226.624C-126.783 -225.893 -128.78 -225.283 -130.465 -224.768C-138.104 -222.436 -139.35 -222.055 -141.518 -221.195C-197.791 -201.076 -244.071 -166.863 -295.308 -128.987C-314.01 -115.161 -333.373 -100.847 -354.123 -86.5522C-332.837 -102.143 -313.643 -116.976 -295.66 -130.874L-295.658 -130.876C-212.464 -195.17 -155.158 -239.458 -36.2162 -246.28C23.0781 -249.75 86.8314 -243.527 145.053 -237.844C184.483 -233.995 221.376 -230.394 252.628 -230.219C255.34 -230.206 258.565 -230.23 262.289 -230.258L262.321 -230.258C295.239 -230.505 367.129 -231.044 468.733 -209.108C573.881 -186.331 646.089 -154.531 728.068 -86.5521C661.278 -138.75 605.197 -166.423 537.679 -186.597C481.151 -203.497 400.152 -218.523 324.78 -222.37C296.905 -223.76 280.989 -223.617 266.33 -223.486C245.409 -223.298 227.046 -223.133 180.127 -227.477C174.433 -228.043 168.795 -228.608 163.211 -229.167C58.0538 -239.699 -27.969 -248.315 -107.024 -231.044L-111.61 -229.915C-121.106 -227.578 -122.161 -227.318 -123.198 -226.999ZM-27.1732 -270.665C-4.04664 -273.463 19.22 -274.96 42.5425 -275.688C75.5214 -276.755 106.153 -276.3 139.938 -275.798L139.95 -275.798C163.742 -275.445 189.098 -275.068 217.938 -275.184C252.911 -275.47 287.867 -273.601 322.61 -269.588C368.961 -264.288 414.787 -255.115 459.605 -242.167C549.452 -216.984 633.559 -172.215 705.683 -112.56C704.008 -113.985 702.484 -115.299 700.966 -116.608C694.629 -122.072 688.399 -127.444 671.763 -140.401C670.041 -141.73 659.429 -149.621 657.666 -150.88C645.421 -159.566 645.153 -159.743 643.01 -161.162L643.008 -161.163C641.875 -161.913 640.218 -163.01 635.995 -165.892C632.382 -168.309 628.737 -170.642 625.074 -172.988L625.04 -173.009C623.775 -173.819 622.508 -174.63 621.24 -175.447C616.284 -178.637 611.272 -181.617 606.205 -184.569C605.455 -185.005 604.705 -185.443 603.955 -185.881L603.949 -185.885C599.635 -188.404 595.317 -190.926 590.918 -193.284C570.34 -204.579 549.166 -214.751 527.487 -223.755C467.725 -248.42 398.275 -267.125 323.38 -276.163C294.211 -279.651 264.88 -281.612 235.507 -282.039C188.509 -282.231 156.29 -282.556 131.966 -282.802C90.511 -283.22 71.9888 -283.407 42.3186 -282.305C18.87 -281.41 -4.59266 -279.703 -27.9152 -276.709C-75.0084 -270.889 -121.388 -259.837 -163.301 -238.837C-173.87 -233.619 -183.992 -227.645 -193.959 -221.391C-242.905 -191.097 -289.83 -149.517 -327.841 -115.836L-327.842 -115.835C-329.099 -114.72 -330.347 -113.615 -331.585 -112.518L-328.846 -114.809L-325.676 -117.459C-291.655 -145.912 -257.69 -174.319 -221.286 -199.062C-165.877 -236.864 -120.422 -259.599 -27.1732 -270.665ZM323.184 -326.92C368.039 -318.062 411.934 -304.897 454.258 -287.607C496.611 -270.3 537.153 -248.861 575.295 -223.601C594.399 -211.029 612.859 -197.528 630.675 -183.099C648.492 -168.671 665.584 -153.454 681.954 -137.449C617.39 -203.17 540.368 -255.373 455.388 -291.01C370.407 -326.646 279.173 -345 187.014 -345C94.8553 -345 3.6206 -326.646 -81.3598 -291.01C-166.34 -255.374 -243.363 -203.17 -307.927 -137.449C-240.73 -203.077 -163.455 -253.569 -80.23 -287.607C-37.9067 -304.897 5.9884 -318.062 50.8441 -326.92C140.774 -344.473 233.253 -344.473 323.184 -326.92Z" fill="url(#paint1_radial)"/>
</g>
<defs>
<filter id="filter0_d" x="-12" y="-4" width="399" height="1422" filterUnits="userSpaceOnUse" color-interpolation-filters="sRGB">
<feFlood flood-opacity="0" result="BackgroundImageFix"/>
<feColorMatrix in="SourceAlpha" type="matrix" values="0 0 0 0 0 0 0 0 0 0 0 0 0 0 0 0 0 0 127 0"/>
<feOffset dy="8"/>
<feGaussianBlur stdDeviation="6"/>
<feColorMatrix type="matrix" values="0 0 0 0 0.126042 0 0 0 0 0.15878 0 0 0 0 0.183333 0 0 0 0.04 0"/>
<feBlend mode="normal" in2="BackgroundImageFix" result="effect1_dropShadow"/>
<feBlend mode="normal" in="SourceGraphic" in2="effect1_dropShadow" result="shape"/>
</filter>
<linearGradient id="paint0_linear" x1="3.12499" y1="38.5042" x2="873.596" y2="603.083" gradientUnits="userSpaceOnUse">
<stop stop-color="#15295A"/>
<stop offset="0.342492" stop-color="#3D4D73"/>
<stop offset="1" stop-color="#0E1324"/>
</linearGradient>
<radialGradient id="paint1_radial" cx="0" cy="0" r="1" gradientUnits="userSpaceOnUse" gradientTransform="translate(383.895 410.122) rotate(-111.698) scale(768.668 3672.48)">
<stop stop-color="#DFEFFD"/>
<stop offset="0.632269" stop-color="#00A3FF" stop-opacity="0"/>
</radialGradient>
</defs>
</svg>
